<?xml version="1.0" encoding="UTF-8" standalone="no"?>
<svg
   xmlns:dc="http://purl.org/dc/elements/1.1/"
   xmlns:cc="http://creativecommons.org/ns#"
   xmlns:rdf="http://www.w3.org/1999/02/22-rdf-syntax-ns#"
   xmlns:svg="http://www.w3.org/2000/svg"
   xmlns="http://www.w3.org/2000/svg"
   xmlns:sodipodi="http://sodipodi.sourceforge.net/DTD/sodipodi-0.dtd"
   xmlns:inkscape="http://www.inkscape.org/namespaces/inkscape"
   width="199.8625"
   height="92.399529"
   viewBox="0 0 199.8625 92.399527"
   version="1.2"
   class="notes"
   sodipodi:docname="M1.svg"
   inkscape:version="0.92.3 (2405546, 2018-03-11)">
  <metadata
     id="metadata3931">
    <rdf:RDF>
      <cc:Work
         rdf:about="">
        <dc:format>image/svg+xml</dc:format>
        <dc:type
           rdf:resource="http://purl.org/dc/dcmitype/StillImage" />
        <dc:title>M1</dc:title>
      </cc:Work>
    </rdf:RDF>
  </metadata>
  <defs
     id="defs3929" />
  <sodipodi:namedview
     pagecolor="#ffffff"
     bordercolor="#666666"
     borderopacity="1"
     objecttolerance="10"
     gridtolerance="10"
     guidetolerance="10"
     inkscape:pageopacity="0"
     inkscape:pageshadow="2"
     inkscape:window-width="1366"
     inkscape:window-height="706"
     id="namedview3927"
     showgrid="false"
     inkscape:zoom="2.5609046"
     inkscape:cx="60.569813"
     inkscape:cy="19.402132"
     inkscape:window-x="-8"
     inkscape:window-y="-8"
     inkscape:window-maximized="1"
     inkscape:current-layer="svg3925"
     fit-margin-top="0"
     fit-margin-left="0"
     fit-margin-right="0"
     fit-margin-bottom="0" />
  <title
     id="title3823">M1</title>
  <desc
     id="desc3825">Generated by MuseScore 2.1.0</desc>
  <polyline
     class="LedgerLine"
     points="76.0308,58.3465 85.6136,58.3465"
     id="polyline3853"
     style="stroke:#000000;stroke-width:0.80000001;stroke-linecap:square;stroke-linejoin:bevel"
     transform="translate(-28.3465,-55.0261)" />
  <g
     id="g4329">
    <polyline
       transform="translate(-28.3465,-55.0261)"
       style="stroke:#000000;stroke-width:0.64999998;stroke-linecap:round;stroke-linejoin:bevel"
       id="polyline3855"
       points="202.754,66.7855 202.754,82.0965"
       class="Stem" />
    <path
       inkscape:connector-curvature="0"
       id="path3873"
       d="m 178.4775,8.0665 c 0.625,0 1.152,0.1627 1.582,0.4882 0.403,0.3516 0.605,0.7943 0.605,1.3282 0,0.8984 -0.462,1.7382 -1.386,2.5195 -0.938,0.7812 -1.941,1.1719 -3.008,1.1719 -0.625,0 -1.153,-0.1628 -1.582,-0.4883 -0.404,-0.3516 -0.606,-0.7943 -0.606,-1.3281 0,-0.8985 0.469,-1.7383 1.407,-2.5196 0.911,-0.7812 1.907,-1.1718 2.988,-1.1718"
       class="Note" />
  </g>
  <g
     id="g4344">
    <polyline
       transform="translate(-28.3465,-55.0261)"
       style="stroke:#000000;stroke-width:0.64999998;stroke-linecap:round;stroke-linejoin:bevel"
       id="polyline3857"
       points="177.775,116.786 177.775,147.096"
       class="Stem" />
    <path
       inkscape:connector-curvature="0"
       id="path3875"
       d="m 153.4975,58.0669 c 0.625,0 1.152,0.162 1.582,0.488 0.404,0.351 0.606,0.794 0.606,1.328 0,0.898 -0.463,1.738 -1.387,2.519 -0.938,0.782 -1.94,1.172 -3.008,1.172 -0.625,0 -1.152,-0.162 -1.582,-0.488 -0.404,-0.351 -0.605,-0.794 -0.605,-1.328 0,-0.898 0.468,-1.738 1.406,-2.52 0.911,-0.781 1.907,-1.171 2.988,-1.171"
       class="Note" />
    <path
       inkscape:connector-curvature="0"
       id="path3877"
       d="m 153.4975,75.5669 c 0.625,0 1.152,0.162 1.582,0.488 0.404,0.351 0.606,0.794 0.606,1.328 0,0.898 -0.463,1.738 -1.387,2.519 -0.938,0.782 -1.94,1.172 -3.008,1.172 -0.625,0 -1.152,-0.162 -1.582,-0.488 -0.404,-0.351 -0.605,-0.794 -0.605,-1.328 0,-0.898 0.468,-1.738 1.406,-2.52 0.911,-0.781 1.907,-1.171 2.988,-1.171"
       class="Note" />
  </g>
  <g
     id="g4320">
    <polyline
       transform="translate(-28.3465,-55.0261)"
       style="stroke:#000000;stroke-width:0.64999998;stroke-linecap:round;stroke-linejoin:bevel"
       id="polyline3861"
       points="152.795,61.7855 152.795,77.0965"
       class="Stem" />
    <path
       inkscape:connector-curvature="0"
       id="path3881"
       d="m 128.5175,3.0665 c 0.625,0 1.153,0.1627 1.582,0.4882 0.404,0.3516 0.606,0.7943 0.606,1.3282 0,0.8984 -0.462,1.7382 -1.387,2.5195 -0.937,0.7812 -1.94,1.1719 -3.008,1.1719 -0.625,0 -1.152,-0.1628 -1.582,-0.4883 -0.403,-0.3516 -0.605,-0.7943 -0.605,-1.3281 0,-0.8985 0.469,-1.7383 1.406,-2.5196 0.912,-0.7812 1.908,-1.1718 2.988,-1.1718"
       class="Note" />
  </g>
  <g
     id="g4339">
    <polyline
       transform="translate(-28.3465,-55.0261)"
       style="stroke:#000000;stroke-width:0.64999998;stroke-linecap:round;stroke-linejoin:bevel"
       id="polyline3863"
       points="133.748,134.907 133.748,104.596"
       class="Stem" />
    <path
       inkscape:connector-curvature="0"
       id="path3883"
       d="m 103.5385,60.5669 c 0.625,0 1.152,0.162 1.582,0.488 0.403,0.351 0.605,0.794 0.605,1.328 0,0.898 -0.462,1.738 -1.386,2.519 -0.938,0.782 -1.941,1.172 -3.008,1.172 -0.625,0 -1.153,-0.162 -1.582,-0.488 -0.404,-0.351 -0.606,-0.794 -0.606,-1.328 0,-0.898 0.469,-1.738 1.406,-2.52 0.912,-0.781 1.908,-1.171 2.989,-1.171"
       class="Note" />
    <path
       inkscape:connector-curvature="0"
       id="path3885"
       d="m 103.5385,78.0669 c 0.625,0 1.152,0.162 1.582,0.488 0.403,0.351 0.605,0.794 0.605,1.328 0,0.898 -0.462,1.738 -1.386,2.519 -0.938,0.782 -1.941,1.172 -3.008,1.172 -0.625,0 -1.153,-0.162 -1.582,-0.488 -0.404,-0.351 -0.606,-0.794 -0.606,-1.328 0,-0.898 0.469,-1.738 1.406,-2.52 0.912,-0.781 1.908,-1.171 2.989,-1.171"
       class="Note" />
  </g>
  <g
     id="g4311">
    <polyline
       transform="translate(-28.3465,-55.0261)"
       style="stroke:#000000;stroke-width:0.64999998;stroke-linecap:round;stroke-linejoin:bevel"
       id="polyline3867"
       points="102.836,64.2855 102.836,78.3465"
       class="Stem" />
    <path
       inkscape:connector-curvature="0"
       id="path3889"
       d="m 78.5585,5.5665 c 0.625,0 1.152,0.1627 1.582,0.4882 0.404,0.3516 0.606,0.7943 0.606,1.3282 0,0.8984 -0.463,1.7382 -1.387,2.5195 -0.938,0.7812 -1.94,1.1719 -3.008,1.1719 -0.625,0 -1.152,-0.1628 -1.582,-0.4883 -0.404,-0.3516 -0.605,-0.7943 -0.605,-1.3281 0,-0.8985 0.468,-1.7383 1.406,-2.5196 0.911,-0.7812 1.907,-1.1718 2.988,-1.1718"
       class="Note" />
  </g>
  <g
     id="g4334">
    <polyline
       transform="translate(-28.3465,-55.0261)"
       style="stroke:#000000;stroke-width:0.64999998;stroke-linecap:round;stroke-linejoin:bevel"
       id="polyline3869"
       points="83.7886,137.407 83.7886,106.471"
       class="Stem" />
    <path
       inkscape:connector-curvature="0"
       id="path3891"
       d="m 53.5789,63.0669 c 0.625,0 1.1523,0.162 1.582,0.488 0.4036,0.351 0.6055,0.794 0.6055,1.328 0,0.898 -0.4623,1.738 -1.3868,2.519 -0.9375,0.782 -1.9401,1.172 -3.0078,1.172 -0.625,0 -1.1523,-0.162 -1.582,-0.488 -0.4036,-0.351 -0.6055,-0.794 -0.6055,-1.328 0,-0.898 0.4688,-1.738 1.4063,-2.52 0.9114,-0.781 1.9075,-1.171 2.9883,-1.171"
       class="Note" />
    <path
       inkscape:connector-curvature="0"
       id="path3893"
       d="m 53.5789,80.5669 c 0.625,0 1.1523,0.162 1.582,0.488 0.4036,0.351 0.6055,0.794 0.6055,1.328 0,0.898 -0.4623,1.738 -1.3868,2.519 -0.9375,0.782 -1.9401,1.172 -3.0078,1.172 -0.625,0 -1.1523,-0.162 -1.582,-0.488 -0.4036,-0.351 -0.6055,-0.794 -0.6055,-1.328 0,-0.898 0.4688,-1.738 1.4063,-2.52 0.9114,-0.781 1.9075,-1.171 2.9883,-1.171"
       class="Note" />
  </g>
  <g
     id="g4325">
    <polyline
       transform="translate(-28.3465,-55.0261)"
       style="stroke:#000000;stroke-width:0.64999998;stroke-linecap:round;stroke-linejoin:bevel"
       id="polyline3859"
       points="177.775,71.7855 177.775,84.5965"
       class="Stem" />
    <path
       inkscape:connector-curvature="0"
       id="path3879"
       d="m 153.4975,13.0665 c 0.625,0 1.152,0.1627 1.582,0.4882 0.404,0.3516 0.606,0.7943 0.606,1.3282 0,0.8984 -0.463,1.7382 -1.387,2.5195 -0.938,0.7812 -1.94,1.1719 -3.008,1.1719 -0.625,0 -1.152,-0.1628 -1.582,-0.4883 -0.404,-0.3516 -0.605,-0.7943 -0.605,-1.3281 0,-0.8985 0.468,-1.7383 1.406,-2.5196 0.911,-0.7812 1.907,-1.1718 2.988,-1.1718"
       class="Note" />
    <path
       style="fill-rule:evenodd"
       inkscape:connector-curvature="0"
       id="path3917"
       d="m 149.1035,28.3204 25.629,-2.5651 v 2.5 l -25.629,2.5651 v -2.5"
       class="Beam" />
  </g>
  <g
     id="g4316">
    <polyline
       transform="translate(-28.3465,-55.0261)"
       style="stroke:#000000;stroke-width:0.64999998;stroke-linecap:round;stroke-linejoin:bevel"
       id="polyline3865"
       points="127.815,66.7855 127.815,79.5965"
       class="Stem" />
    <path
       inkscape:connector-curvature="0"
       id="path3887"
       d="m 103.5385,8.0665 c 0.625,0 1.152,0.1627 1.582,0.4882 0.403,0.3516 0.605,0.7943 0.605,1.3282 0,0.8984 -0.462,1.7382 -1.386,2.5195 -0.938,0.7812 -1.941,1.1719 -3.008,1.1719 -0.625,0 -1.153,-0.1628 -1.582,-0.4883 -0.404,-0.3516 -0.606,-0.7943 -0.606,-1.3281 0,-0.8985 0.469,-1.7383 1.406,-2.5196 0.912,-0.7812 1.908,-1.1718 2.989,-1.1718"
       class="Note" />
    <path
       style="fill-rule:evenodd"
       inkscape:connector-curvature="0"
       id="path3919"
       d="m 99.1435,23.3204 25.63,-2.5651 v 2.5 l -25.63,2.5651 v -2.5"
       class="Beam" />
  </g>
  <g
     id="g4307">
    <polyline
       transform="translate(-28.3465,-55.0261)"
       style="stroke:#000000;stroke-width:0.64999998;stroke-linecap:round;stroke-linejoin:bevel"
       id="polyline3871"
       points="77.8558,59.2855 77.8558,73.3465"
       class="Stem" />
    <path
       inkscape:connector-curvature="0"
       id="path3895"
       d="m 53.5789,0.5665 c 0.625,0 1.1523,0.1627 1.582,0.4882 0.4036,0.3516 0.6055,0.7943 0.6055,1.3282 0,0.8984 -0.4623,1.7382 -1.3868,2.5195 -0.9375,0.7812 -1.9401,1.1719 -3.0078,1.1719 -0.625,0 -1.1523,-0.1628 -1.582,-0.4883 -0.4036,-0.3516 -0.6055,-0.7943 -0.6055,-1.3281 0,-0.8985 0.4688,-1.7383 1.4063,-2.5196 0.9114,-0.7812 1.9075,-1.1718 2.9883,-1.1718"
       class="Note" />
    <path
       style="fill-rule:evenodd"
       inkscape:connector-curvature="0"
       id="path3921"
       d="m 49.1843,17.0704 25.6302,5.1301 v 2.5 L 49.1843,19.5704 v -2.5"
       class="Beam" />
  </g>
</svg>
